<svg width="20" height="25" viewBox="0 0 20 25" fill="none" xmlns="http://www.w3.org/2000/svg">
<path d="M16.5812 7.75V21.75C16.5812 22.2804 16.3705 22.7891 15.9954 23.1642C15.6203 23.5393 15.1116 23.75 14.5812 23.75H4.58118C4.05074 23.75 3.54204 23.5393 3.16696 23.1642C2.79189 22.7891 2.58118 22.2804 2.58118 21.75V7.75" stroke="#FDF6EC" stroke-width="1.5" stroke-linecap="round" stroke-linejoin="round"/>
<path d="M8.0826 17.8026H7.35391C7.24872 17.8029 7.14523 17.7775 7.05349 17.7287C6.96175 17.68 6.88488 17.6096 6.83033 17.5244C6.77794 17.4389 6.75024 17.3418 6.75 17.2429C6.74977 17.144 6.77701 17.0468 6.82899 16.9611L8.14796 14.8026M6.78197 15.1494L8.14796 14.8026L8.51381 16.0961M9.41658 17.8026H12.1522C12.2569 17.8019 12.3596 17.7756 12.4505 17.7264C12.5414 17.6772 12.6174 17.6066 12.6712 17.5216C12.7228 17.4363 12.75 17.3397 12.75 17.2413C12.75 17.143 12.7228 17.0464 12.6712 16.9611L12.2623 16.2916M10.4171 18.75L9.41658 17.8026L10.4171 16.8553M8.86431 13.6377L9.22882 13.0402C9.28116 12.9538 9.3562 12.8817 9.44665 12.8308C9.53711 12.78 9.6399 12.7521 9.74507 12.75C9.84943 12.7498 9.95201 12.7756 10.0425 12.8249C10.133 12.8741 10.2082 12.945 10.2607 13.0304L11.5756 15.1914M11.9415 13.8979L11.5756 15.1914L10.2096 14.8446" stroke="#6B8F5E" stroke-width="0.8" stroke-linecap="round" stroke-linejoin="round"/>
<path d="M0.75 4.75H18.75M5.75 4.75V2.75C5.75 2.21957 5.96071 1.71086 6.33579 1.33579C6.71086 0.960714 7.21957 0.75 7.75 0.75H11.75C12.2804 0.75 12.7891 0.960714 13.1642 1.33579C13.5393 1.71086 13.75 2.21957 13.75 2.75V4.75" stroke="#FDF6EC" stroke-width="1.5" stroke-linecap="round" stroke-linejoin="round"/>
</svg>
